<?xml version="1.0" encoding="UTF-8"?>
<svg width="200px" height="200px" viewBox="0 0 200 200" version="1.1" xmlns="http://www.w3.org/2000/svg">
    <g stroke="none" stroke-width="1" fill="none" fill-rule="evenodd">
        <circle fill="#FDF2F8" cx="100" cy="100" r="100"/>
        <g transform="translate(40, 60)">
            <path d="M10,0 L110,0 C115.522847,-1.01453063e-15 120,4.4771525 120,10 L120,70 C120,75.5228475 115.522847,80 110,80 L10,80 C4.4771525,80 6.76353751e-16,75.5228475 0,70 L0,10 C-6.76353751e-16,4.4771525 4.4771525,1.01453063e-15 10,0 Z" fill="#EC4899"/>
            <path d="M20,20 L100,20 C102.761424,20 105,22.2385763 105,25 L105,25 C105,27.7614237 102.761424,30 100,30 L20,30 C17.2385763,30 15,27.7614237 15,25 L15,25 C15,22.2385763 17.2385763,20 20,20 Z" fill="#FFFFFF"/>
            <path d="M20,40 L80,40 C82.7614237,40 85,42.2385763 85,45 L85,45 C85,47.7614237 82.7614237,50 80,50 L20,50 C17.2385763,50 15,47.7614237 15,45 L15,45 C15,42.2385763 17.2385763,40 20,40 Z" fill="#FFFFFF"/>
        </g>
    </g>
</svg>
